<?xml version="1.0" standalone="no"?>
<!DOCTYPE svg PUBLIC "-//W3C//DTD SVG 20010904//EN"
 "http://www.w3.org/TR/2001/REC-SVG-20010904/DTD/svg10.dtd">
<svg version="1.0" xmlns="http://www.w3.org/2000/svg"
 width="1216.000000pt" height="912.000000pt" viewBox="0 0 1216.000000 912.000000"
 preserveAspectRatio="xMidYMid meet">

<g transform="translate(0.000000,912.000000) scale(0.100000,-0.100000)"
fill="#ffffff" stroke="none">
<path d="M1100 5170 l0 -2900 335 0 c261 0 335 -3 335 -12 2 -48 32 -173 45
-188 16 -17 14 -31 -24 -215 -23 -107 -41 -203 -41 -211 0 -9 13 -29 29 -45
l29 -29 546 0 c523 0 546 -1 546 -18 0 -10 -11 -25 -25 -32 -14 -7 -44 -43
-67 -79 -35 -55 -42 -76 -46 -130 -2 -35 0 -66 5 -70 6 -3 16 -19 24 -36 l14
-30 143 -3 142 -3 30 64 c29 61 55 165 45 175 -6 6 36 82 72 130 l24 32 228 0
228 0 26 26 c25 25 27 33 29 138 l3 111 44 -3 c54 -4 98 13 115 47 8 15 16 79
20 156 4 72 9 151 12 178 l6 47 94 0 95 0 -6 -32 c-3 -18 -19 -152 -35 -298
-35 -310 -45 -365 -107 -636 -3 -15 5 -33 25 -55 l30 -34 271 -3 c255 -3 273
-2 318 18 115 50 153 80 153 122 0 36 -29 54 -100 63 -144 17 -199 52 -256
161 l-31 59 28 95 c15 52 68 194 117 315 l88 220 1407 3 c774 1 1407 0 1407
-3 0 -3 31 -137 70 -297 38 -161 72 -303 75 -315 4 -16 1 -23 -10 -23 -18 0
-18 -2 -3 -106 17 -117 5 -127 -202 -178 -104 -26 -127 -35 -136 -54 -7 -13
-17 -29 -23 -35 -6 -6 -11 -21 -11 -34 l0 -23 355 0 355 0 0 74 c0 45 -8 99
-20 138 -15 50 -23 135 -40 422 -11 198 -19 361 -17 362 4 5 258 -680 257
-695 0 -8 4 -28 10 -45 5 -17 12 -75 16 -128 l6 -98 59 -87 c32 -48 71 -94 86
-101 20 -11 51 -13 122 -10 88 5 97 7 118 33 35 40 25 73 -87 285 l-98 185
-51 360 c-28 198 -51 363 -51 368 0 4 15 7 34 7 l34 0 6 -57 c3 -32 8 -119 11
-193 8 -196 14 -229 41 -257 19 -19 34 -23 84 -23 l60 0 0 -110 c0 -107 1
-112 26 -135 l27 -25 483 0 484 0 0 -194 0 -195 26 -20 c26 -21 35 -21 629
-21 560 0 604 1 623 18 21 17 21 25 23 510 3 454 1 494 -14 510 -15 14 -43 17
-193 20 l-176 3 6 57 c4 31 9 69 12 84 l6 28 284 0 284 0 0 2900 0 2900 -1555
0 -1555 0 0 -855 c0 -470 -1 -855 -2 -855 -2 0 -25 7 -52 15 -62 19 -149 19
-209 1 l-47 -14 0 854 0 854 -1550 0 -1550 0 0 -775 0 -775 -27 7 c-34 9 -206
8 -257 -1 l-36 -7 0 776 0 775 -1555 0 -1555 0 0 -2900z m3100 2117 l0 -773
-30 -22 c-56 -42 -61 -63 -58 -264 l3 -183 38 -9 37 -10 0 -97 0 -97 -107 29
c-163 44 -219 38 -276 -31 -42 -49 -47 -87 -41 -305 l6 -200 70 -215 71 -215
12 -355 c7 -195 12 -356 12 -356 -1 -1 -50 30 -109 68 l-108 70 0 329 0 329
-235 0 -235 0 0 165 0 165 -489 0 c-365 0 -490 -3 -493 -12 -2 -6 -253 153
-576 367 l-572 377 0 1009 0 1009 1540 0 1540 0 0 -773z m1898 -157 l1403
-925 -7 -105 c-4 -64 -12 -113 -21 -126 -13 -20 -12 -25 6 -43 15 -15 21 -34
21 -69 0 -66 20 -92 71 -92 l39 0 0 -109 0 -109 -52 -11 c-210 -44 -241 -56
-273 -105 -9 -14 -43 -100 -76 -193 -32 -92 -98 -256 -145 -363 l-87 -195
-263 -178 -263 -177 -137 8 c-74 4 -138 4 -141 -1 -11 -19 9 -36 61 -51 31 -9
56 -22 56 -29 0 -7 -49 -63 -110 -124 -60 -61 -110 -116 -110 -122 0 -5 16
-18 35 -27 30 -14 38 -14 52 -3 13 11 17 11 20 2 7 -19 25 -16 77 13 l46 26
-6 -30 c-3 -16 -2 -32 4 -36 6 -3 58 45 116 108 l107 114 206 92 c233 103 447
228 458 269 3 13 8 21 10 19 3 -3 -15 -91 -40 -196 -25 -105 -45 -211 -45
-234 0 -59 209 -990 226 -1003 27 -21 52 -177 64 -400 9 -164 18 -246 36 -322
13 -57 24 -105 24 -108 0 -3 -150 -5 -333 -5 l-332 0 -263 175 -262 175 0 80
0 80 -110 0 -110 0 0 690 0 690 -125 0 -125 0 0 435 0 435 -85 0 -85 0 0 310
0 310 -114 0 -114 0 -6 28 c-3 15 -37 286 -76 602 -39 316 -74 588 -78 604 -5
19 -34 -169 -90 -585 -46 -338 -86 -622 -89 -631 -4 -16 -18 -18 -114 -18
l-109 0 0 -26 0 -26 -34 30 c-19 17 -43 33 -53 36 -30 8 -125 34 -170 46 l-43
11 0 65 c0 59 2 65 18 59 9 -3 36 -11 60 -18 38 -10 44 -9 62 9 17 17 21 35
23 121 2 92 4 102 21 105 31 5 43 34 23 55 -16 18 -15 21 10 58 l26 39 -28 80
c-43 123 -91 175 -177 191 l-38 7 0 775 0 775 78 -4 77 -3 1403 -925z m332
152 l1175 -777 3 -75 c3 -74 2 -75 -32 -108 -19 -18 -41 -48 -47 -67 -7 -19
-17 -35 -21 -35 -10 0 -2746 1805 -2768 1826 -12 12 22 14 250 13 l265 0 1175
-777z m-616 765 c7 -7 414 -278 904 -602 l892 -590 0 -169 0 -168 -22 15 c-13
8 -529 349 -1148 757 -619 408 -1132 749 -1140 756 -12 12 25 14 244 14 195 0
261 -3 270 -13z m1588 -124 l208 -138 0 -457 0 -457 -212 141 c-117 78 -512
339 -878 581 -366 241 -672 445 -680 453 -12 12 82 14 670 14 l685 0 207 -137z
m208 7 l0 -130 -182 121 c-101 67 -187 125 -192 130 -6 5 72 9 182 9 l192 0 0
-130z m3428 -1132 c1 -692 -1 -1258 -4 -1258 -6 0 -3000 1978 -3051 2017 l-33
24 0 233 c0 128 3 236 7 239 3 4 698 6 1542 5 l1536 -3 3 -1257z m-1530 -270
l1532 -1013 0 -452 c0 -249 -3 -453 -7 -453 -5 1 -323 210 -708 465 -385 255
-1077 713 -1537 1017 l-837 553 -1 454 c0 373 2 452 13 448 8 -3 703 -461
1545 -1019z m-4193 -298 c36 -294 68 -545 70 -557 5 -22 9 -23 120 -23 l115 0
0 -310 0 -310 85 0 85 0 0 -244 0 -243 -157 44 c-87 25 -166 53 -176 63 -18
17 -17 17 14 24 39 8 69 32 69 58 0 23 -21 23 -118 -1 -128 -32 -203 -36 -254
-13 -23 11 -60 25 -80 32 -36 11 -38 13 -38 56 0 26 -34 162 -79 322 -92 324
-111 403 -111 471 l0 50 107 3 107 3 80 585 c57 412 83 575 88 555 4 -17 37
-271 73 -565z m4186 -626 c838 -555 1527 -1013 1531 -1019 8 -11 11 -325 3
-325 -3 0 -580 380 -1282 844 l-1278 843 -6 61 c-10 104 -87 186 -183 194
l-38 3 -88 -165 c-82 -156 -86 -166 -72 -188 21 -32 89 -70 140 -78 87 -14
196 46 224 122 7 19 17 33 24 30 6 -2 586 -384 1288 -847 l1276 -842 0 -174
c0 -95 -3 -173 -7 -173 -3 0 -236 152 -517 338 -281 185 -957 632 -1503 992
-722 477 -986 656 -972 660 14 3 48 58 110 177 l89 171 -32 28 c-45 37 -90 54
-151 57 l-52 2 -2 -222 -2 -221 1507 -996 c829 -547 1513 -1001 1520 -1007 9
-10 12 -183 12 -796 l0 -783 -280 0 -281 0 6 33 c14 82 165 1286 165 1319 0
64 -20 70 -222 66 -173 -3 -174 -3 -240 -36 -39 -19 -81 -49 -100 -72 -18 -22
-89 -146 -158 -276 l-125 -236 -165 6 c-91 4 -216 9 -277 13 l-113 6 0 589 0
588 -110 0 -110 0 0 363 0 363 -177 69 -178 69 -99 95 c-73 71 -121 129 -181
221 -46 69 -93 135 -106 147 -58 53 -115 55 -316 8 -23 -5 -23 -5 -23 109 0
105 2 116 20 126 19 10 20 21 20 240 0 219 -1 230 -20 240 -18 10 -20 21 -20
146 0 111 3 135 14 131 7 -3 699 -459 1537 -1013z m-4835 762 c13 -28 24 -70
24 -93 0 -39 -2 -43 -24 -43 -13 0 -29 -7 -36 -15 -8 -9 -9 -15 -2 -15 6 0 14
5 17 10 12 20 45 11 45 -12 0 -12 12 -34 26 -49 30 -31 27 -59 -6 -59 -11 0
-20 -4 -20 -10 0 -5 -9 -10 -20 -10 -36 0 -88 -27 -95 -50 -4 -12 -13 -20 -23
-18 -26 5 -52 61 -60 132 -6 46 -14 70 -27 80 -18 13 -18 14 3 25 11 6 40 11
64 11 24 0 54 7 66 16 19 13 22 24 22 90 0 87 9 89 46 10z m-274 -123 c14 -13
18 -31 18 -90 l0 -74 -31 16 c-36 19 -59 68 -59 125 0 37 2 40 27 40 14 0 35
-7 45 -17z m3153 -104 c6 -9 19 -21 30 -27 17 -10 14 -11 -22 -12 -42 0 -43 1
-43 33 0 17 3 43 7 57 7 25 8 25 13 -5 3 -16 10 -37 15 -46z m5 -89 c0 -36 -2
-40 -25 -40 -22 0 -25 4 -25 40 0 36 3 40 25 40 23 0 25 -4 25 -40z m330 21
c22 -41 0 -101 -37 -101 -11 0 -13 -18 -11 -85 3 -94 2 -93 71 -58 l27 14 0
-115 0 -115 -117 -123 c-64 -68 -120 -124 -125 -126 -4 -2 -8 89 -8 202 l0
206 29 0 c20 0 31 -6 34 -17 4 -14 5 -12 6 5 1 21 -2 22 -102 22 -67 0 -107 4
-115 12 -19 19 -15 66 8 78 23 12 27 30 6 30 -17 0 -66 43 -66 57 0 14 45 43
65 43 10 0 15 10 15 30 l0 30 70 0 c63 0 70 -2 70 -20 0 -30 22 -24 53 15 24
31 34 35 72 35 34 0 47 -5 55 -19z m-5348 -979 c1191 -787 1403 -931 1406
-952 2 -19 -137 -405 -150 -415 -2 -1 -601 393 -1333 877 l-1330 880 -3 269
c-1 148 0 269 2 269 3 0 636 -417 1408 -928z m1781 908 c126 -28 124 -27 130
-58 4 -17 16 -33 31 -40 l26 -12 0 -164 c0 -91 -4 -167 -9 -170 -5 -4 -70 58
-145 136 l-136 143 0 92 c0 51 2 93 5 93 3 0 47 -9 98 -20z m377 -5 c0 -26
-22 -33 -49 -16 -12 8 -12 12 -2 25 21 26 51 20 51 -9z m-600 -149 l125 -34
133 -137 c73 -75 139 -134 145 -132 8 2 13 36 15 95 2 64 6 92 15 92 20 0 222
-57 244 -69 44 -23 71 -70 88 -148 9 -43 54 -212 100 -375 47 -164 85 -313 85
-333 0 -42 -5 -42 -110 -11 l-75 22 -5 214 -6 215 -2 -214 c-2 -179 -4 -212
-16 -208 -8 3 -106 31 -218 62 -111 32 -208 62 -215 69 -6 6 -60 115 -119 241
-118 253 -112 240 -119 234 -5 -6 212 -470 228 -486 7 -6 143 -48 302 -93 246
-69 451 -129 463 -136 2 -1 -17 -66 -42 -145 -41 -134 -46 -144 -68 -141 -94
11 -867 156 -888 167 -40 21 -63 51 -154 204 -77 129 -92 164 -151 341 l-65
198 0 211 c0 226 3 243 52 288 55 52 94 53 258 9z m440 -37 c0 -33 -4 -59 -10
-59 -6 0 -10 29 -10 66 0 41 4 63 10 59 6 -3 10 -33 10 -66z m3130 -144 c0
-87 -3 -105 -15 -105 -12 0 -15 18 -15 105 0 87 3 105 15 105 12 0 15 -18 15
-105z m399 -53 c-30 -23 -269 -185 -289 -197 -8 -4 21 30 64 76 44 46 85 90
92 98 7 7 38 19 71 26 81 18 89 18 62 -3z m-399 -153 c0 -55 -3 -78 -11 -74
-7 5 -10 -63 -7 -234 2 -156 -1 -241 -7 -241 -6 0 -9 86 -7 244 l4 244 -61 51
c-34 28 -62 54 -62 58 0 8 88 30 129 32 21 1 22 -2 22 -80z m-5959 -375 l569
-376 0 -165 0 -165 -29 19 c-16 10 -274 180 -575 378 l-546 360 0 163 c0 89 3
162 6 162 3 0 262 -169 575 -376z m6051 70 c2 -186 0 -238 -10 -242 -7 -2 -14
-3 -15 -1 -7 13 6 479 13 479 5 0 11 -102 12 -236z m-4512 -19 l0 -165 230 0
230 0 0 -315 c0 -298 -1 -315 -17 -306 -10 6 -326 214 -703 464 -394 261 -686
460 -688 470 -3 16 29 17 472 17 l476 0 0 -165z m5045 25 c3 -5 1 -10 -4 -10
-6 0 -11 5 -11 10 0 6 2 10 4 10 3 0 8 -4 11 -10z m159 -157 l135 -132 -52
-29 c-149 -84 -489 -263 -493 -259 -8 8 217 532 234 545 9 7 22 11 28 10 7 -2
73 -62 148 -135z m421 64 l150 -62 3 -367 2 -368 110 0 110 0 0 -574 c0 -316
-3 -577 -7 -579 -5 -2 -140 3 -300 11 -329 16 -329 16 -354 -53 l-13 -36 -112
3 c-107 3 -113 2 -138 -21 -24 -23 -26 -31 -26 -110 0 -47 7 -198 15 -336 8
-137 15 -258 15 -267 0 -14 -9 -18 -40 -18 -35 0 -40 3 -40 24 0 13 -7 62 -15
110 -12 71 -29 114 -89 234 -40 81 -97 197 -125 259 l-52 111 1 464 0 465 35
84 c20 49 35 101 35 125 0 25 6 47 15 54 11 9 15 34 15 99 0 47 4 91 8 97 4 6
116 46 250 88 188 59 275 92 384 147 151 76 182 101 198 160 19 70 0 110 -107
220 -53 55 -92 99 -87 98 5 0 77 -28 159 -62z m-5195 -1641 c0 -7 -10 -39 -23
-71 l-23 -60 -125 -9 -125 -8 -1127 743 -1127 743 0 177 0 178 1275 -841 c701
-462 1275 -846 1275 -852z m338 1327 c69 -117 96 -150 139 -172 16 -8 662
-131 689 -131 2 0 4 -24 4 -53 l0 -53 -432 -112 c-238 -62 -438 -112 -444
-112 -7 0 -13 69 -18 213 -3 116 -9 285 -13 375 -3 89 -4 162 -1 162 3 0 37
-53 76 -117z m4670 24 l82 -83 -107 -53 c-70 -34 -195 -80 -353 -130 l-245
-77 -3 -94 c-2 -71 -7 -99 -19 -113 -10 -10 -20 -45 -24 -80 -7 -66 -50 -175
-57 -145 -2 10 3 42 12 70 12 45 13 64 2 123 -20 113 -36 125 -57 39 -8 -30
-18 -56 -24 -57 -6 -1 -11 35 -13 87 -6 192 24 223 431 443 155 83 284 152
287 152 3 1 43 -36 88 -82z m-6980 -411 l567 -374 2 -209 3 -208 -43 79 c-97
182 -186 226 -453 226 -132 0 -181 -11 -193 -44 -7 -16 143 -1249 183 -1514
l5 -32 -325 0 -324 0 0 1225 c0 674 2 1225 5 1225 3 0 261 -168 573 -374z
m3832 366 c0 -17 -36 -40 -72 -47 -44 -8 -45 -11 -17 -41 14 -15 68 -35 175
-65 85 -24 153 -48 151 -54 -2 -5 -15 -9 -28 -9 -30 2 -184 23 -221 30 -16 3
-28 2 -28 -3 0 -5 44 -15 98 -22 123 -16 143 -21 136 -33 -7 -10 -220 -3 -250
9 -8 3 -14 1 -14 -5 0 -6 46 -13 105 -17 153 -11 134 -28 -25 -23 -71 2 -130
0 -130 -4 0 -4 39 -8 86 -8 64 0 85 -3 82 -12 -3 -9 -39 -14 -121 -16 -102 -2
-124 0 -169 19 -29 12 -64 33 -79 46 -18 17 -37 23 -68 23 -30 0 -42 4 -38 13
2 6 16 52 31 100 27 88 28 89 54 81 15 -4 36 -7 47 -7 42 1 172 23 215 37 53
17 80 19 80 8z m-2519 -513 l688 -454 0 -135 c1 -143 -5 -184 -23 -177 -6 3
-320 209 -698 458 l-688 453 0 164 c0 148 2 162 16 154 9 -5 326 -213 705
-463z m4052 372 c37 -44 67 -82 67 -84 0 -18 -235 -149 -379 -212 -233 -102
-239 -105 -296 -167 -123 -134 -148 -159 -152 -154 -3 3 5 21 17 41 12 20 20
38 18 40 -2 2 -33 -13 -68 -35 -36 -22 -69 -39 -74 -40 -15 0 16 30 62 62 24
16 41 32 38 35 -2 3 -24 -8 -48 -24 -88 -60 -118 -75 -118 -61 0 7 32 35 72
62 40 28 67 51 60 54 -6 2 -48 -22 -92 -53 -44 -31 -80 -51 -80 -44 0 7 50 64
111 125 61 62 109 119 107 126 -3 7 -30 22 -61 33 -30 11 -59 24 -64 29 -8 8
216 0 247 -10 9 -2 130 73 280 176 146 98 270 179 275 180 6 0 40 -36 78 -79z
m-1148 -431 l125 0 0 -681 c0 -555 -2 -680 -13 -676 -20 8 -1050 688 -1069
706 -15 15 -12 37 41 311 43 221 55 304 49 330 -4 19 -8 85 -8 147 0 92 3 111
14 107 9 -4 18 8 28 38 13 40 18 43 53 46 29 3 44 -2 64 -21 55 -50 119 -67
254 -67 111 0 126 2 142 20 11 12 31 20 49 20 19 0 52 15 86 39 l55 38 3 -179
2 -178 125 0z m-950 267 c38 -8 60 -18 60 -27 0 -8 -22 -18 -60 -26 -33 -6
-72 -15 -87 -19 -28 -7 -28 -6 -28 39 0 44 1 46 28 46 15 -1 54 -6 87 -13z
m2600 -201 c323 -130 380 -156 377 -172 -1 -11 -2 -28 -1 -39 7 -151 9 -420 4
-622 l-7 -253 -299 0 -299 0 -8 23 c-5 12 -55 232 -112 489 l-104 466 28 131
c16 72 32 131 35 131 3 0 177 -69 386 -154z m-2535 78 c0 -49 -3 -65 -12 -61
-48 18 -130 37 -138 32 -6 -3 -10 -12 -10 -20 0 -19 -61 -75 -82 -75 -30 0
-29 18 1 52 16 19 33 46 36 61 4 15 11 30 17 33 17 11 133 42 161 43 27 1 27
1 27 -65z m-2208 -679 c509 -335 516 -340 480 -347 -21 -3 -201 -14 -402 -22
-201 -9 -384 -18 -407 -21 l-42 -4 -80 151 -81 152 0 219 c0 120 4 217 8 215
5 -1 241 -156 524 -343z m-961 208 c95 -43 113 -69 315 -448 l189 -355 60 1
c33 0 296 13 585 28 289 15 526 26 528 25 2 -1 -13 -43 -32 -93 -20 -52 -77
-160 -132 -249 l-97 -157 -98 -328 c-53 -181 -99 -330 -101 -332 -2 -2 -269
18 -592 45 -621 52 -614 51 -658 104 -9 12 -19 30 -22 41 -8 30 -216 1667
-216 1697 0 41 24 49 130 45 69 -2 108 -9 141 -24z m185 -3 c86 -42 119 -87
284 -399 85 -161 157 -297 158 -302 2 -5 -31 -9 -76 -9 l-80 0 -158 301 c-88
165 -174 318 -193 340 -18 22 -56 54 -85 70 l-51 30 76 -4 c53 -3 91 -11 125
-27z m1734 -125 c0 -8 -51 -139 -55 -144 -3 -2 -5 39 -5 93 l0 97 30 -21 c17
-12 30 -23 30 -25z m6569 -35 c-76 -40 -110 -90 -274 -399 l-160 -302 -65 6
c-36 3 -114 7 -175 10 -351 14 -1005 47 -1034 51 -31 5 -33 7 -17 22 15 15 50
15 488 -7 647 -31 646 -31 650 -50 2 -9 71 111 153 267 83 156 165 301 183
322 18 21 60 52 94 69 50 26 73 31 127 31 l66 -1 -36 -19z m282 4 c11 -13 -4
-143 -85 -782 -54 -422 -100 -775 -102 -784 -4 -13 -16 -18 -40 -18 -30 0 -34
3 -34 25 0 14 -7 28 -16 32 -12 4 -14 16 -8 59 10 86 16 84 -242 84 -216 0
-224 -1 -234 -21 -7 -13 -9 -40 -5 -69 5 -38 3 -48 -9 -53 -9 -4 -16 -18 -16
-33 l0 -27 -124 7 c-115 6 -125 5 -150 -15 -25 -20 -26 -24 -26 -129 l0 -108
-52 -6 c-176 -20 -1053 -87 -1073 -82 -53 13 -53 15 -85 595 -21 398 -26 548
-19 565 23 50 7 50 760 12 387 -20 729 -36 760 -36 l56 0 178 336 c191 359
218 398 308 440 44 20 68 24 148 24 76 0 99 -3 110 -16z m-6246 -399 l-14
-350 -76 -190 c-42 -104 -78 -191 -78 -192 -1 -1 -2 173 -1 385 l0 387 88 158
c48 87 89 157 91 155 2 -2 -3 -160 -10 -353z m1645 -494 c393 -260 719 -477
724 -482 6 -5 -153 -9 -395 -9 l-405 0 -540 356 c-296 196 -545 362 -553 369
-12 12 -8 46 28 237 24 123 44 229 46 235 5 14 15 8 1095 -706z m-1834 332
c-3 -3 -19 5 -36 17 l-30 22 32 61 33 61 3 -78 c2 -43 1 -81 -2 -83z m-608 90
c-5 -25 -34 -28 -592 -54 -374 -18 -491 -20 -494 -11 -2 6 -4 15 -5 19 -1 5
223 20 498 34 643 34 597 33 593 12z m612 -290 c0 -96 -4 -173 -9 -171 -4 2
-49 30 -99 63 -75 49 -92 65 -92 85 0 14 27 76 61 137 l60 113 39 -26 40 -27
0 -174z m3468 42 c59 -156 66 -185 92 -360 19 -129 37 -212 55 -260 26 -66 28
-89 46 -385 10 -173 18 -339 19 -368 l0 -53 -97 3 -97 3 -7 35 c-4 19 -16 41
-27 50 -14 12 -43 118 -122 445 l-103 430 -13 226 c-9 155 -19 254 -33 314
-12 47 -21 89 -21 91 0 3 55 3 122 2 l122 -3 64 -170z m277 113 c6 -52 29
-108 132 -320 l125 -257 64 -447 c35 -246 64 -454 64 -461 0 -21 -18 -15 -26
10 -17 57 -53 69 -124 41 -46 -19 -58 -46 -41 -96 6 -18 8 -28 3 -23 -5 6 -84
208 -175 451 l-165 440 -27 185 c-24 170 -31 197 -91 357 -35 95 -64 174 -64
177 0 3 72 5 159 5 l159 0 7 -62z m-2555 -423 l535 -355 -244 0 -244 0 -329
216 c-245 161 -327 221 -324 233 11 38 45 189 51 224 3 20 9 37 13 37 4 0 248
-160 542 -355z m-1427 -225 c-13 -256 -28 -482 -34 -503 -16 -60 -32 -63 -241
-47 -100 7 -193 16 -205 19 -23 6 -15 20 152 284 96 153 181 290 189 305 7 15
30 83 51 152 29 100 102 268 111 257 1 -1 -9 -211 -23 -467z m143 359 l94 -61
0 -102 c0 -55 -7 -130 -15 -166 -8 -36 -18 -86 -21 -112 l-5 -48 -95 0 c-90 0
-94 1 -94 22 0 114 29 528 37 528 2 0 47 -27 99 -61z m2154 -64 l0 -66 -27 15
c-16 8 -62 38 -103 65 l-75 51 103 0 102 0 0 -65z m-1160 -220 l304 -200 -267
-3 -267 -2 -78 51 c-42 29 -79 53 -81 55 -2 1 4 22 13 46 8 24 23 86 31 138
19 112 22 123 33 118 5 -2 145 -93 312 -203z m-322 -160 l67 -45 -88 0 c-87 0
-88 0 -81 23 13 44 24 67 29 67 3 0 36 -20 73 -45z m5482 -159 c0 -13 -7 -26
-15 -30 -8 -3 -15 -17 -15 -31 l0 -25 -125 0 -125 0 0 25 c0 14 -7 28 -15 31
-8 4 -15 17 -15 30 l0 24 155 0 155 0 0 -24z m-300 -66 c0 -17 -7 -20 -50 -20
-43 0 -50 3 -50 20 0 17 7 20 50 20 43 0 50 -3 50 -20z m398 3 c-2 -14 -15
-19 -56 -21 -47 -3 -52 -1 -52 17 0 19 6 21 56 21 47 0 55 -3 52 -17z m-688
-58 c0 -22 -4 -25 -35 -25 -33 0 -35 -2 -35 -35 0 -31 -3 -35 -25 -35 -23 0
-25 4 -25 42 0 56 21 78 77 78 39 0 43 -2 43 -25z m780 0 l0 -25 -385 0 -385
0 0 25 0 25 385 0 385 0 0 -25z m112 8 c12 -11 18 -30 18 -60 0 -39 -2 -43
-25 -43 -22 0 -25 4 -25 35 0 33 -2 35 -35 35 -31 0 -35 3 -35 25 0 23 4 25
42 25 24 0 49 -7 60 -17z m162 -5 c14 -20 16 -83 16 -495 0 -415 -2 -473 -16
-487 -23 -24 -48 -21 -34 3 6 13 10 185 10 491 0 306 -4 478 -10 491 -15 28
14 25 34 -3z m-206 -490 l2 -448 -455 0 -455 0 0 443 c0 244 3 447 7 450 3 4
207 6 452 5 l446 -3 3 -447z m-8010 387 c293 -25 540 -45 548 -45 23 0 13 -46
-31 -137 l-34 -73 -552 0 c-448 0 -550 2 -546 13 3 7 18 75 33 150 16 75 33
137 39 137 6 0 250 -20 543 -45z m7092 -425 l0 -420 465 0 465 0 0 421 0 420
23 -3 22 -3 3 -415 c1 -228 0 -425 -3 -436 -10 -43 -35 -45 -529 -42 -450 3
-468 4 -482 22 -12 16 -14 93 -14 441 0 232 3 425 7 428 3 4 15 7 25 7 17 0
18 -19 18 -420z m1088 -6 c3 -479 6 -460 -77 -471 -41 -6 -44 -5 -35 13 5 10
10 208 12 439 1 231 4 426 7 433 3 9 19 12 47 10 l43 -3 3 -421z m142 -8 l0
-435 -22 -15 c-25 -17 -78 -22 -78 -7 0 6 5 13 10 16 6 4 10 160 10 434 0 235
3 431 7 434 3 4 21 7 40 7 l33 0 0 -434z m-7207 345 c15 -1 17 -12 17 -81 l0
-80 -150 0 -151 0 12 23 c7 12 31 51 54 87 l42 66 79 -7 c43 -4 87 -8 97 -8z
m5917 -146 l0 -115 -450 0 -450 0 0 75 c0 41 3 75 8 76 4 0 201 18 437 38 237
21 436 39 443 40 9 1 12 -28 12 -114z m-6382 -50 c61 -15 112 -31 112 -36 0
-4 -23 -45 -52 -90 l-52 -82 -13 31 c-7 18 -18 32 -24 32 -6 0 -10 16 -8 38 3
63 5 62 -71 62 -76 0 -79 3 -54 51 10 20 21 28 32 25 9 -3 68 -17 130 -31z
m1259 -1 c-6 -20 -24 -46 -39 -57 -21 -15 -28 -29 -28 -53 0 -28 -5 -34 -40
-48 -75 -30 -117 -20 -181 41 -34 32 -36 38 -32 81 3 26 6 53 8 60 3 9 45 12
164 12 l159 0 -11 -36z m3855 -41 c25 -29 31 -60 12 -67 -13 -5 -16 -16 -12
-59 4 -42 3 -48 -6 -33 -25 45 -55 67 -81 60 -20 -5 -26 -1 -35 21 -15 39 -5
61 38 79 49 20 66 20 84 -1z m-623 -17 c23 -27 25 -82 5 -110 -11 -14 -22 -26
-25 -26 -4 0 -10 24 -13 53 -4 28 -10 62 -13 75 -4 17 -1 22 15 22 11 0 25 -6
31 -14z m-4542 -40 c-5 -37 -3 -46 15 -58 29 -20 37 -135 13 -207 l-17 -51
-51 0 c-41 0 -55 4 -65 20 -18 29 -97 29 -112 -1 -10 -17 -19 -20 -63 -17
l-52 3 1 55 c0 47 6 65 42 121 23 36 53 72 67 79 14 7 27 26 31 44 11 52 19
56 112 56 l85 0 -6 -44z m1341 -9 c32 -57 88 -112 131 -129 14 -5 64 -16 110
-24 46 -7 89 -19 97 -25 22 -18 16 -45 -17 -73 l-31 -26 -199 0 c-192 0 -201
1 -230 23 -27 19 -45 22 -150 25 -103 3 -119 6 -118 20 0 31 36 202 43 209 3
4 19 -5 34 -19 68 -63 116 -73 205 -41 45 16 47 19 41 47 -5 23 -2 33 17 47
13 10 27 19 31 19 3 0 20 -24 36 -53z m3412 -156 c25 -47 -1 -101 -48 -101
-54 0 -81 62 -45 102 22 25 79 24 93 -1z m70 -171 c0 -20 -7 -20 -340 -20
-333 0 -340 0 -340 20 0 20 7 20 340 20 333 0 340 0 340 -20z m293 -50 c66
-98 77 -104 193 -97 52 3 102 11 110 17 22 19 19 -13 -3 -32 -26 -23 -181 -35
-216 -17 -40 21 -159 199 -133 199 1 0 24 -31 49 -70z"/>
<path d="M9696 1694 c-19 -18 -19 -20 -6 -45 10 -18 25 -19 375 -19 350 0 365
1 375 19 13 25 13 27 -6 45 -13 14 -61 16 -369 16 -308 0 -356 -2 -369 -16z
m722 -3 c8 -5 12 -17 10 -27 -3 -18 -19 -19 -363 -19 -344 0 -360 1 -363 19
-2 10 2 22 10 27 7 5 166 9 353 9 187 0 346 -4 353 -9z"/>
<path d="M9696 1494 c-19 -18 -19 -20 -6 -45 10 -18 25 -19 375 -19 359 0 364
0 375 21 9 16 8 25 -6 40 -16 18 -35 19 -370 19 -307 0 -355 -2 -368 -16z
m732 -26 l-3 -23 -360 0 -360 0 -3 23 -3 22 366 0 366 0 -3 -22z"/>
</g>
</svg>
