<svg id="Capa_1" fill="#87ceed" enable-background="new 0 0 511.191 511.191" height="512" viewBox="0 0 511.191 511.191" width="512" xmlns="http://www.w3.org/2000/svg"><g><path d="m307.004 287.751c-3.968-1.194-8.149 1.054-9.343 5.021l-12.61 41.918c-.211.701-.318 1.429-.318 2.161v135.261c0 4.142 3.358 7.5 7.5 7.5s7.5-3.358 7.5-7.5v-134.157l12.292-40.861c1.194-3.967-1.054-8.15-5.021-9.343z"/><path d="m328.432 207.322c-4.094-.621-7.917 2.199-8.537 6.294-1.06 7.005-2.626 13.977-4.655 20.721l-8.371 27.828c-1.193 3.967 1.055 8.149 5.021 9.343.721.217 1.448.32 2.164.32 3.224 0 6.203-2.095 7.179-5.341l8.371-27.828c2.233-7.422 3.956-15.093 5.122-22.799.62-4.096-2.198-7.919-6.294-8.538z"/><path d="m136.502 391.953-65.326-.256c-7.57-.03-13.996-5.466-15.279-12.926l-11.116-64.614c-.619-3.599-3.74-6.229-7.392-6.229h-22.368c.378-18.475 5.711-36.479 15.482-52.199l7.973-12.827c1.95-3.138 2.83-6.743 2.545-10.425l-2.992-38.721c-2.983-38.608 9.861-75.521 36.167-103.937 26.306-28.417 62.119-44.067 100.842-44.067 1.742 0 3.554.033 5.385.098 4.128.15 7.614-3.09 7.761-7.229s-3.09-7.614-7.229-7.761c-2.008-.071-3.999-.107-5.917-.107-42.328 0-83.095 17.815-111.85 48.877-28.754 31.062-43.375 73.081-40.114 115.282l2.992 38.722c.037.478-.078.945-.33 1.352l-7.972 12.826c-11.621 18.696-17.764 40.215-17.764 62.23 0 7.106 5.781 12.887 12.887 12.887h18.183l10.044 58.386c2.521 14.649 15.139 25.324 30.004 25.383l65.326.256c6.25.024 11.335 5.129 11.335 11.379v54.606c0 4.142 3.358 7.5 7.5 7.5s7.5-3.358 7.5-7.5v-54.606c0-14.49-11.788-26.324-26.277-26.38z"/><path d="m493.426 247.811-7.972-12.826c-.253-.407-.367-.875-.331-1.352l2.992-38.721c3.261-42.202-11.36-84.22-40.114-115.282s-69.522-48.877-111.85-48.877c-28.997 0-56.62 7.507-80.715 21.437-12.133-7.01-25.178-12.454-38.826-16.061-4.004-1.061-8.109 1.331-9.167 5.335-1.059 4.004 1.33 8.109 5.335 9.167 9.861 2.606 19.375 6.274 28.403 10.872-12.963 9.479-24.626 20.991-34.563 34.358-30.762 41.377-39.886 93.425-25.033 142.798l6.398 21.269c1.193 3.966 5.377 6.217 9.343 5.021 3.966-1.193 6.215-5.376 5.021-9.343l-6.398-21.269c-13.472-44.785-5.196-91.996 22.707-129.527 10.391-13.977 22.854-25.73 36.817-34.982 19.462 12.866 35.897 30.373 47.49 51.12 1.374 2.458 3.925 3.843 6.554 3.843 1.238 0 2.494-.308 3.651-.954 3.616-2.021 4.91-6.59 2.889-10.206-11.553-20.676-27.482-38.429-46.297-52.128 20.186-10.26 42.785-15.751 66.392-15.751 38.723 0 74.536 15.65 100.842 44.067s39.15 65.329 36.167 103.937l-2.992 38.721c-.285 3.684.596 7.289 2.546 10.426l7.972 12.826c9.771 15.72 15.104 33.724 15.482 52.199h-22.368c-3.651 0-6.772 2.63-7.392 6.229l-11.116 64.614c-1.284 7.46-7.71 12.896-15.28 12.926l-65.326.256c-14.489.057-26.276 11.89-26.276 26.379v54.606c0 4.142 3.358 7.5 7.5 7.5s7.5-3.358 7.5-7.5v-54.606c0-6.25 5.085-11.355 11.335-11.379l65.326-.256c14.865-.059 27.483-10.733 30.004-25.383l10.044-58.385h18.183c7.106 0 12.887-5.781 12.887-12.887.001-22.015-6.142-43.534-17.764-62.231z"/><path d="m218.957 347.714c-4.142 0-7.5 3.358-7.5 7.5v116.898c0 4.142 3.358 7.5 7.5 7.5s7.5-3.358 7.5-7.5v-116.898c0-4.142-3.358-7.5-7.5-7.5z"/><path d="m368.417 216.139c1.706.795 3.507 1.186 5.292 1.186 2.849 0 5.655-.995 7.957-2.924l46.365-38.854c2.828-2.369 4.45-5.844 4.45-9.534 0-3.689-1.622-7.164-4.449-9.533l-46.365-38.854c-3.746-3.139-8.822-3.805-13.249-1.738-4.428 2.066-7.178 6.385-7.178 11.271v12.63h-62.488c-6.938 0-12.583 5.645-12.583 12.583v27.281c0 6.938 5.645 12.583 12.583 12.583h62.488v12.63c-.001 4.888 2.75 9.207 7.177 11.273zm-67.25-38.902v-22.447h67.572c4.142 0 7.5-3.358 7.5-7.5v-14.641l39.814 33.364-39.814 33.365v-14.641c0-4.142-3.358-7.5-7.5-7.5z"/><path d="m238.003 280.266h-62.488v-12.63c0-4.886-2.75-9.206-7.179-11.271-4.427-2.067-9.504-1.401-13.249 1.738l-46.365 38.854c-2.827 2.369-4.449 5.843-4.449 9.532 0 3.688 1.621 7.164 4.449 9.534l46.366 38.854c2.303 1.93 5.108 2.924 7.957 2.924 1.785 0 3.587-.391 5.293-1.187 4.427-2.066 7.177-6.385 7.177-11.271v-12.63h62.488c6.939 0 12.584-5.645 12.584-12.584v-27.28c0-6.938-5.645-12.583-12.584-12.583zm-2.416 37.448h-67.572c-4.142 0-7.5 3.358-7.5 7.5v14.641l-39.815-33.365 39.815-33.365v14.641c0 4.142 3.358 7.5 7.5 7.5h67.572z"/></g></svg>